<svg width="18" height="16" viewBox="0 0 18 16" fill="none" xmlns="http://www.w3.org/2000/svg">
<path d="M0 0.75C0 0.334375 0.334375 0 0.75 0H2.17188C2.85938 0 3.46875 0.4 3.75312 1H16.5969C17.4187 1 18.0188 1.78125 17.8031 2.575L16.5219 7.33437C16.2563 8.31562 15.3656 9 14.35 9H5.33437L5.50313 9.89062C5.57188 10.2438 5.88125 10.5 6.24062 10.5H15.25C15.6656 10.5 16 10.8344 16 11.25C16 11.6656 15.6656 12 15.25 12H6.24062C5.15937 12 4.23125 11.2313 4.03125 10.1719L2.41875 1.70312C2.39688 1.58438 2.29375 1.5 2.17188 1.5H0.75C0.334375 1.5 0 1.16563 0 0.75ZM4 14.5C4 14.303 4.0388 14.108 4.11418 13.926C4.18956 13.744 4.30005 13.5786 4.43934 13.4393C4.57863 13.3001 4.74399 13.1896 4.92597 13.1142C5.10796 13.0388 5.30302 13 5.5 13C5.69698 13 5.89204 13.0388 6.07403 13.1142C6.25601 13.1896 6.42137 13.3001 6.56066 13.4393C6.69995 13.5786 6.81044 13.744 6.88582 13.926C6.9612 14.108 7 14.303 7 14.5C7 14.697 6.9612 14.892 6.88582 15.074C6.81044 15.256 6.69995 15.4214 6.56066 15.5607C6.42137 15.6999 6.25601 15.8104 6.07403 15.8858C5.89204 15.9612 5.69698 16 5.5 16C5.30302 16 5.10796 15.9612 4.92597 15.8858C4.74399 15.8104 4.57863 15.6999 4.43934 15.5607C4.30005 15.4214 4.18956 15.256 4.11418 15.074C4.0388 14.892 4 14.697 4 14.5ZM14.5 13C14.8978 13 15.2794 13.158 15.5607 13.4393C15.842 13.7206 16 14.1022 16 14.5C16 14.8978 15.842 15.2794 15.5607 15.5607C15.2794 15.842 14.8978 16 14.5 16C14.1022 16 13.7206 15.842 13.4393 15.5607C13.158 15.2794 13 14.8978 13 14.5C13 14.1022 13.158 13.7206 13.4393 13.4393C13.7206 13.158 14.1022 13 14.5 13Z" fill="#B65F28"/>
</svg>
